<svg version="1" xmlns="http://www.w3.org/2000/svg" width="1358.667" height="1358.667" viewBox="0 0 1019.000000 1019.000000"><path d="M99.3 1.1c-16.8 2-36 9.2-50.4 19C29.1 33.5 12.2 56.5 5 79.8c-5.2 16.8-5-2.5-5 394.7 0 246.6.3 372.6 1 380 2.2 23.2 8.3 43.4 19.6 65.5C35 947.9 57 972.3 83.3 989.4c19.4 12.7 42.7 22.2 65.9 26.8l11.3 2.3 341.5.3c243.2.2 344.7 0 352.5-.8 23.8-2.4 43.1-8.1 64.4-19 19.1-9.9 30.3-18.1 46.1-34 16.4-16.4 24.6-27.7 34.4-47.5 11.3-22.6 16.3-39.8 18.6-64.5.8-8.1 1-122 .8-384-.3-339.9-.5-373.1-2-379-2.6-10.4-5.7-18.9-9.9-27.4-15.6-31-42.4-51.6-77.9-60.2-7.2-1.8-25.2-1.9-415-2-224.1-.1-410.7.2-414.7.7zm32.1 68.2C145 75.8 155.2 89 158 103.9c1.6 8.6 1.2 42.4-.5 50-7.3 30.7-39.6 45.7-67.6 31.5-10.4-5.2-19.4-16.1-23-27.5-1.6-5.3-1.9-9.3-1.9-30.3 0-21.7.2-24.9 2-30.1 5.2-15.1 15.8-25.7 30.8-30.6 4.5-1.5 7.9-1.8 15.8-1.6 9.2.3 10.8.7 17.8 4zm118.5-3.2c15.8 3.6 30.4 17.6 34.6 33.1 1.4 5.3 1.6 10.2 1.3 31.3l-.3 25-3.7 7.8c-6.9 14.5-19.8 24.2-35.5 26.9-22.6 3.8-45.6-10.3-52.4-32.3-1.6-5.2-1.9-9.3-1.9-29.8 0-18.8.3-24.9 1.6-29.2 4.4-15.1 16.3-27.2 31.4-32 6.2-2 18.1-2.4 24.9-.8zM350 98.3c0 32.9 0 33.4-2.2 35.3-3.9 3.5-16.7 19.3-21.9 27.2-2.8 4.2-5.6 8.1-6 8.7-.5.5-.9-22.1-.9-51.8V65h31v33.3zm91.5-31.9c6.7 1.7 11.5 4.3 9.5 5-.8.2-6.4 2.1-12.5 4.1-15.8 5.3-37.7 16.1-52.7 25.9l-2.7 1.8.9-3.3c4.5-15.6 19.5-30.2 34.7-33.8 5.8-1.4 17.2-1.2 22.8.3zM573 69.1c0 3.5-.3 4-1.7 3.4-2.8-1.1-22.6-5.5-24.8-5.5-1.1 0-2.7-.5-3.5-1-1-.6 3.7-1 14.3-1H573v4.1zm93.2-2.1c17.3 5.3 29.7 19.5 32.9 37.4 1.7 10.3.7 47.8-1.5 53.8-1 2.7-2.1 4.8-2.4 4.8-.4-.1-2.9-3.3-5.7-7.2-2.7-3.9-8.5-11.1-12.7-15.9l-7.8-8.8v-10.9c0-9.2-.3-11.4-2.2-15.2-3-5.7-6.5-8.2-12.6-8.8-5.9-.5-11.3 1.7-14.2 5.8l-2 2.8-5.3-3.5c-2.8-1.9-8.7-5.5-13-8l-7.7-4.5 1.7-3c4.8-8.1 17.5-17.5 26.9-19.7 7-1.6 18.7-1.2 25.6.9zm97.8 61v63h-31V65h31v63zm63 0v63h-31V65h31v63zm96.9-60.1c14 5.6 24.4 17 28.5 31 1.3 4.3 1.6 10.4 1.6 29.2 0 20.5-.3 24.6-1.9 29.8-5.2 16.7-19.9 29.3-37.8 32.3-23.8 4-46.4-11.3-52.8-35.7-1.8-7.2-2.1-43.4-.4-51.7 3.4-16.4 16.1-30.8 31.7-35.9 7.8-2.6 23.3-2.1 31.1 1zm-478.5 96.3c.2 2.4.9 8.4 1.5 13.5 5.5 46.8 41.9 89.9 87.6 103.8 17.6 5.3 20.2 5.5 95.6 5.5H700v64h32.3l-.6 26.7c-.3 16.9-1.2 30.7-2.2 37.3-6.8 44.1-25.3 82.9-56.2 117.5l-8.4 9.5h68.5c65.3 0 68.8.1 73.6 1.9 7.8 3 13.4 8.1 17.2 15.9l3.3 6.7.3 99.7.3 99.7 4.2 1.2c18.5 4.9 36 17.9 46.2 34.3 27.5 44.1 7.1 100.7-42.4 117.7-8.6 3-8.1 3.7-8.1-12.6V892H191v14.5c0 12-.3 14.5-1.4 14.5-3.7 0-19.4-6.7-25.9-11-17.2-11.3-29.8-29.3-34.1-48.7-2-9-2.1-25-.1-34.2 5.9-28.1 26.7-50.7 54.3-59.1l7.2-2.2v-100l-2.2.6c-1.3.4-6.2 1-10.9 1.3-10.6.7-19.4-1.6-28.5-7.5-7.7-5-12.8-10.9-17.3-20.2l-3.6-7.5-.3-24.2c-.4-26.8.4-32.3 5.8-41.7 12.8-22.4 40.1-30.7 62.8-19.2 4.7 2.4 4.8 2.4 7.2.5 1.4-1 4.9-2.8 7.8-3.9 5.1-1.9 7.6-2 73.8-2h68.5l-8.5-9.4c-4.7-5.2-11.5-13.5-15.2-18.5-3.6-5-6.9-9.1-7.2-9.1-.4 0-3.6.9-7 2-13.2 4.1-28.2 1.8-40.1-6.1-7.5-5-12-10.4-16.1-19.2-4-8.4-5-15.3-5-35.7 0-19.8 1.1-27.3 5.2-36.3 3.7-8 13-17.3 21.4-21.5l5.4-2.6V351h32v-36.8c0-49.2 1.6-59.3 12.9-82.7 10.8-22.5 26.1-39.5 47.4-52.8 17.7-11.1 40.3-18.2 59.4-18.6l6.2-.1.5 4.2zM96 287v63H65V224h31v63zm63 0v63h-31V224h31v63zm93.1-61.4c15.5 4.5 27.9 17 32.4 32.6 1.4 4.8 1.6 9.8 1.3 31l-.3 25.3-3.7 7.8c-5 10.5-13 18.5-23.5 23.5-7.6 3.6-8.1 3.7-19.3 3.7-11.1 0-11.7-.1-19-3.6-13-6.3-22.2-16.4-26.1-29-1.6-5.2-1.9-9.3-1.9-29.9 0-20.8.2-24.6 2-30.1 4.5-14.8 15.9-26.2 30.8-31 7.2-2.3 20-2.4 27.3-.3zm547.2 2.6c10.5 5 18.4 13 23.5 23.5l3.7 7.8v55l-3.7 7.8c-5 10.5-13 18.5-23.5 23.5-7.6 3.6-8.1 3.7-19.3 3.7-11.1 0-11.7-.1-19-3.6-13-6.3-22.2-16.4-26.1-29-1.6-5.2-1.9-9.3-1.9-29.9 0-20.8.2-24.6 2-30.1 4.5-14.8 15.7-26.1 30.8-31 4.4-1.5 8-1.8 15.7-1.6 9.2.2 10.6.5 17.8 3.9zM891 287v63h-31V224h31v63zm63 0v63h-31V224h31v63zm-832.8 97.1c17.9 3.7 33.4 19.5 36.7 37.4 1.4 7.4 1.4 41.4.1 48.6-2.8 14.9-13 28.1-26.5 34.6-6.6 3.1-8.9 3.7-17 4.1-10.3.5-19.4-1.6-26.9-6.1-6.9-4.3-14.5-12.8-18.4-20.6l-3.7-7.5v-57.1l3.7-7.5c9.4-19.3 31.3-30.2 52-25.9zM223 446v63h-31V383h31v63zm541 0v63h-31V383h31v63zm90.5-61.5c18.4 4.8 32.5 20.1 35.4 38.5 1.4 8.3 1.4 37.5.1 46-1.4 8.8-6.8 19.5-13.3 26.2-15.3 16-40.6 18.4-59.6 5.7-3.4-2.2-7.7-6-9.6-8.3-4.8-5.9-9.5-16.4-10.5-23.8-1.3-8.6-1.2-37.8.1-45.8 1.6-10.5 6.2-19.1 13.8-26.2 12.6-11.8 28.3-16.2 43.6-12.3zM954 446v63h-31V383h31v63zM96 605v63H65V542h31v63zm822.3-61.5c16.2 4.2 28.4 15.6 33.7 31.4 2 6 2.1 8 1.8 32.5l-.3 26.1-3.2 6.8c-7.8 16.5-25.4 27.7-43.4 27.7-21.8 0-41.9-16.6-45.9-37.9-1.6-8.8-1.3-44.6.5-51.6 6.8-26 31.9-41.5 56.8-35z"/><path d="M104.2 97.7c-1.9.9-4.4 3.2-5.8 5.2-2.4 3.5-2.4 4-2.4 24.4 0 22.8.3 24.3 6 29 5.9 5 13.6 4.7 19.7-.6 5.8-5.1 6.3-7.5 6.3-27.6 0-21.1-.9-24.5-7.3-29.2-4.7-3.4-11.1-3.9-16.5-1.2zM231.2 97.7c-1.8.9-4.3 3-5.5 4.7-2.1 2.9-2.2 4.3-2.5 24.6-.3 21.1-.3 21.6 2 24.9 3.9 5.8 7.2 7.6 13.8 7.6 6.6 0 9.9-1.8 13.8-7.6 2.3-3.3 2.3-3.8 2-24.9-.3-19.7-.5-21.7-2.3-24.2-4.7-6.3-14.3-8.6-21.3-5.1zM899 98.2c-1.9 1.3-4.5 3.9-5.7 5.7-2.2 3.3-2.3 4.2-2.3 24.1v20.7l2.9 4c5.2 7.2 15.6 9.3 22.1 4.5 1.4-1 3.5-3.4 4.8-5.2 2.1-3.2 2.2-4.2 2.2-23.7 0-22.7-.6-25.4-6.3-29.5-4.7-3.4-13.2-3.7-17.7-.6zM408.7 319.1c-10 1.5-19.1 8.5-23.8 18.4l-2.9 6v22.6c0 27.6.5 29.5 9.4 38.5 7.3 7.2 12.6 9.4 23.1 9.4 6 0 8.2-.5 13.3-3.1 7.5-3.7 13.4-10.2 16.2-17.5 1.8-4.9 2-7.8 2-26.9 0-25-1-29.4-8.7-37.7-7.4-7.8-17.6-11.3-28.6-9.7zM593.3 320.7c-5.7 2-13.8 9.4-17.1 15.7l-2.7 5.1v25c0 24.2.1 25.1 2.3 29.3 3.6 6.7 8.8 11.9 15.4 15.2 5.2 2.6 7.2 3 13.8 3 6.6 0 8.6-.4 13.8-3 6.9-3.5 12.5-9.2 15.6-15.9 2-4.3 2.1-6.2 2.1-28.6 0-23.1-.1-24.2-2.3-28.6-3.6-7.3-8.7-12.5-15.4-15.8-5.3-2.7-7.1-3.1-13.7-3-4.2 0-9.5.7-11.8 1.6zM477.4 418.2c1.7 10.2 8.9 19.8 18.5 24.5 7.7 3.9 19.2 4 26.6.4 9.6-4.8 16.6-14.2 18-24.4l.7-4.7h-64.5l.7 4.2zM287.8 423.1c-1 1.8-1.3 7.6-1.3 22.9 0 22.8.4 24.7 6.7 29.1 3.2 2.3 14.8 4.1 14.8 2.3 0-.5-1.7-5-3.9-9.9-4.9-11.3-9.4-25.5-11.7-36.5-2-9.9-2.7-11.1-4.6-7.9zM454 492.9c-7.2 3.8-10 12.4-6.6 20.4 3.4 8.1 22.8 20.1 40.1 24.7 10.3 2.8 25.6 3.7 34.9 2 21.5-3.8 45-16.6 49.2-26.7 3.3-7.9.6-16.2-6.6-20-6.9-3.7-9.5-3.1-21.3 4.9-19.9 13.5-38 15.7-56.2 7-4.4-2.2-11.5-6.2-15.9-9-8.7-5.8-11.9-6.4-17.6-3.3zM168.5 574.4c-3.7 1.6-7 5.2-8.4 8.9-1.7 4.5-1.4 41.2.3 44.5 3.2 6.2 11.4 10.8 17 9.6 4.6-.9 9.2-4.1 11.5-7.8 1.9-3.1 2.1-4.9 2.1-24.7 0-20.4-.1-21.4-2.2-24.6-4.3-6.2-13.5-8.9-20.3-5.9zM231.2 256.6c-1.8.9-4.3 3.1-5.5 4.8-2.1 2.9-2.2 4.3-2.5 24.3-.3 23.7.2 26.3 6.2 30.6 4.6 3.3 14.8 3.2 19.3-.2 5.8-4.3 6.3-6.7 6.3-29.1 0-22.4-.6-25.2-6.3-29.2-4.1-2.9-12.9-3.5-17.5-1.2zM772.2 256.6c-1.8.9-4.3 3.1-5.5 4.8-2.1 2.9-2.2 4.3-2.5 24.3-.3 23.7.2 26.3 6.2 30.6 4.6 3.3 14.8 3.2 19.3-.2 5.8-4.3 6.3-6.7 6.3-29.1 0-22.4-.6-25.2-6.3-29.2-4.1-2.9-12.9-3.5-17.5-1.2zM103.9 416.3c-1.8 1.2-4.4 3.8-5.6 5.6-2.2 3.3-2.3 4.2-2.3 24.5 0 20.8 0 21.2 2.4 24.7 5 7.3 15.2 9.1 22.3 4 6.4-4.7 7.3-8.1 7.3-29.4 0-17-.2-18.6-2.2-22.7-4.4-8.7-14.4-11.8-21.9-6.7zM837.5 414.9c-3.5 1.5-8.5 7.4-9.6 11.5-.6 2.3-.9 11.3-.7 22 .3 20.1 1 22.4 7 26.8 4.9 3.5 14.2 3.3 19-.4 6.4-4.9 7-7.3 6.6-30.2l-.3-20.3-2.8-3.6c-1.5-2.1-4.1-4.4-5.7-5.2-3.1-1.6-10.2-1.9-13.5-.6zM900.1 574.7c-1.8.9-4.7 3.5-6.2 5.6l-2.9 4v20.4c0 21.8.1 22.6 5.3 28.1 3.9 4.1 9.3 5.7 14.5 4.3 4.1-1.2 9.9-6.2 11.3-9.9.5-1.3.9-11.5.9-22.6 0-19.4-.1-20.5-2.2-23.6-1.3-1.8-3.5-4.2-5-5.3-3.7-2.7-11.4-3.2-15.7-1z"/></svg>